<svg xmlns="http://www.w3.org/2000/svg" width="22" height="22" viewBox="0 0 22 22" fill="none">
<path d="M13.4209 14.5128C13.4209 18.0028 10.6029 20.8328 7.12692 20.8328C3.65096 20.8328 0.833984 18.0028 0.833984 14.5128C0.833984 11.0228 3.65196 8.19587 7.12693 8.19587C8.73691 8.19587 9.9079 8.92987 9.9079 8.92987L17.5178 1.28794C17.8598 0.944941 18.7478 0.464946 19.5678 1.28794L20.4458 2.16993C20.7388 2.51293 21.1488 3.37492 20.4458 4.07991L19.4218 5.1099C20.4458 6.13789 19.8608 7.31388 19.2748 7.75488C18.2508 8.48887 17.2258 7.60788 17.2258 7.60788L16.9328 7.90188C18.3388 9.31186 17.5188 10.5469 16.9328 10.9878C15.9088 11.7228 14.8839 10.9878 14.8839 10.9878C14.2989 10.6939 14.2989 10.1059 13.5669 10.8408L12.6889 11.7228C13.2739 12.4278 13.4209 13.8778 13.4209 14.5148L13.4209 14.5128Z" stroke="#002C15" stroke-width="1.66667" stroke-linejoin="round"/>
<path d="M7.12762 16.7175C7.71092 16.7162 8.26982 16.4833 8.68143 16.07C9.09304 15.6567 9.32367 15.0968 9.3226 14.5135C9.32367 13.9303 9.09304 13.3704 8.68143 12.9571C8.26982 12.5438 7.71092 12.3109 7.12762 12.3096C6.83872 12.3101 6.55274 12.3675 6.28603 12.4786C6.01932 12.5896 5.77709 12.7521 5.57317 12.9568C5.36926 13.1614 5.20765 13.4042 5.09758 13.6713C4.9875 13.9385 4.93112 14.2246 4.93164 14.5135C4.93112 14.8025 4.9875 15.0886 5.09758 15.3558C5.20765 15.6229 5.36926 15.8657 5.57317 16.0703C5.77709 16.275 6.01932 16.4375 6.28603 16.5485C6.55274 16.6596 6.83872 16.717 7.12762 16.7175Z" stroke="#002C15" stroke-width="1.66667"/>
</svg>