<svg xmlns="http://www.w3.org/2000/svg" width="16" height="16" viewBox="0 0 16 16" fill="none">
  <path d="M8 1.84961C8.78167 1.84969 9.44982 2.12463 9.99609 2.6709C10.5425 3.21726 10.8169 3.88557 10.8164 4.66699V5.84961H11.5898C11.9271 5.84965 12.2196 5.97016 12.458 6.20801V6.20898C12.6959 6.447 12.8164 6.73923 12.8164 7.07715V12.9229C12.8164 13.2601 12.6958 13.5526 12.458 13.791C12.22 14.029 11.9275 14.1504 11.5898 14.1504H4.41016C4.07209 14.1503 3.78007 14.0291 3.54199 13.791C3.30392 13.5529 3.18262 13.2606 3.18262 12.9229V7.07715C3.18262 6.73994 3.30334 6.44734 3.54102 6.20898H3.54199C3.78007 5.97091 4.07209 5.84965 4.41016 5.84961H5.18262V4.66699C5.18262 3.8852 5.45754 3.21682 6.00391 2.6709C6.54983 2.12453 7.21821 1.84961 8 1.84961ZM4.41016 6.81641C4.32603 6.81641 4.26653 6.84187 4.2207 6.8877C4.17502 6.93338 4.14945 6.99251 4.14941 7.07715V12.9229C4.14941 13.007 4.17488 13.0665 4.2207 13.1123C4.26638 13.158 4.32552 13.1836 4.41016 13.1836H11.5898C11.6738 13.1836 11.7325 13.158 11.7783 13.1123C11.8241 13.0665 11.8496 13.007 11.8496 12.9229V7.07715C11.8496 6.99303 11.8241 6.93352 11.7783 6.8877C11.7325 6.842 11.6738 6.81644 11.5898 6.81641H4.41016ZM8 8.84961C8.31912 8.85014 8.59452 8.96222 8.81641 9.18359C9.03832 9.40514 9.14941 9.68041 9.14941 10C9.14941 10.2798 9.06465 10.5259 8.89453 10.7314L8.81641 10.8164C8.59489 11.0384 8.31959 11.1503 8 11.1504C7.68027 11.1504 7.40421 11.0385 7.18262 10.8164C6.96081 10.5949 6.84961 10.3195 6.84961 10C6.84961 9.68049 6.96081 9.40511 7.18262 9.18359C7.40459 8.96111 7.68046 8.8491 8 8.84961ZM8 2.81641C7.48377 2.81641 7.04989 2.99601 6.68945 3.35645C6.32901 3.71688 6.14941 4.15077 6.14941 4.66699V5.84961H9.84961V4.66699C9.84961 4.15092 9.67077 3.71682 9.31055 3.35645C8.95018 2.99608 8.51608 2.81648 8 2.81641Z" fill="#002C15" stroke="#002C15" stroke-width="0.3"/>
</svg>